<svg xmlns="http://www.w3.org/2000/svg" viewBox="0 0 400 500" width="400" height="500">
  <defs>
    <linearGradient id="fabric-gradient" x1="0%" y1="0%" x2="100%" y2="100%">
      <stop offset="0%" style="stop-color:rgba(255,255,255,0.1)"/>
      <stop offset="50%" style="stop-color:rgba(0,0,0,0)"/>
      <stop offset="100%" style="stop-color:rgba(0,0,0,0.05)"/>
    </linearGradient>
    <filter id="shadow" x="-20%" y="-20%" width="140%" height="140%">
      <feDropShadow dx="2" dy="4" stdDeviation="4" flood-opacity="0.15"/>
    </filter>
  </defs>
  
  <!-- T-Shirt Body -->
  <g filter="url(#shadow)">
    <!-- Main body -->
    <path class="shirt-body" fill="currentColor" d="
      M80,120 
      L40,140 L30,200 L60,210 L70,160 L70,420 
      C70,440 90,450 200,450 
      C310,450 330,440 330,420 
      L330,160 L340,210 L370,200 L360,140 L320,120
      C300,100 260,90 200,90 
      C140,90 100,100 80,120 Z
    "/>
    
    <!-- Left sleeve -->
    <path class="shirt-body" fill="currentColor" d="
      M80,120 L40,140 L30,200 L60,210 L70,160 L80,120 Z
    "/>
    
    <!-- Right sleeve -->
    <path class="shirt-body" fill="currentColor" d="
      M320,120 L360,140 L370,200 L340,210 L330,160 L320,120 Z
    "/>
    
    <!-- Collar -->
    <path fill="none" stroke="rgba(0,0,0,0.2)" stroke-width="2" d="
      M150,95 C175,105 225,105 250,95
    "/>
    <ellipse cx="200" cy="95" rx="50" ry="15" fill="none" stroke="rgba(0,0,0,0.15)" stroke-width="8"/>
  </g>
  
  <!-- Fabric texture overlay -->
  <path fill="url(#fabric-gradient)" d="
    M80,120 
    L40,140 L30,200 L60,210 L70,160 L70,420 
    C70,440 90,450 200,450 
    C310,450 330,440 330,420 
    L330,160 L340,210 L370,200 L360,140 L320,120
    C300,100 260,90 200,90 
    C140,90 100,100 80,120 Z
  "/>
  
  <!-- Seam lines -->
  <g stroke="rgba(0,0,0,0.08)" stroke-width="1" fill="none">
    <line x1="200" y1="100" x2="200" y2="450"/>
    <path d="M70,170 Q200,180 330,170"/>
  </g>
  
  <!-- Print area indicator (invisible by default) -->
  <rect class="print-area" x="120" y="140" width="160" height="180" 
        fill="none" stroke="none" data-area="front-center"/>
</svg>

