<svg width="1024" height="1024" viewBox="0 0 1024 1024" xmlns="http://www.w3.org/2000/svg">
  <!-- Complete hoodie back mask - unified shape for 100% coverage -->
  <g>
    <!-- Single unified path covering entire hoodie back area -->
    <path d="
      M 380,120
      Q 512,80 644,120
      L 724,140 L 780,160 L 840,200 L 880,250 L 900,320 L 870,380
      L 820,420 L 780,380 L 780,920
      Q 780,960 740,960
      L 284,960
      Q 244,960 244,920
      L 244,380 L 204,420 L 154,380 L 124,320 L 144,250 L 184,200 L 240,160 L 300,140 L 380,120
      Z
    "
    fill="white"
    fill-rule="evenodd"/>

    <!-- Sleeve connection areas for complete coverage -->
    <ellipse cx="220" cy="300" rx="60" ry="120" fill="white"/>
    <ellipse cx="804" cy="300" rx="60" ry="120" fill="white"/>

    <!-- Hood connection area -->
    <ellipse cx="512" cy="160" rx="180" ry="60" fill="white"/>

    <!-- Body extension for complete coverage -->
    <rect x="200" y="300" width="624" height="640" fill="white" rx="40"/>

    <!-- Additional coverage to eliminate any gaps -->
    <rect x="180" y="200" width="664" height="760" fill="white" rx="60" opacity="0.8"/>

    <!-- MAXIMUM COVERAGE ADDITIONS - Eliminate ALL gaps for back view -->

    <!-- Massive overlapping rectangles for 100% solid coverage -->
    <rect x="150" y="120" width="724" height="820" fill="white" rx="60"/>

    <!-- Additional massive ellipses for complete coverage -->
    <ellipse cx="512" cy="400" rx="350" ry="300" fill="white"/>
    <ellipse cx="512" cy="600" rx="320" ry="250" fill="white"/>

    <!-- Corner and edge coverage to eliminate any possible gaps -->
    <circle cx="200" cy="200" r="100" fill="white"/>
    <circle cx="824" cy="200" r="100" fill="white"/>
    <circle cx="200" cy="800" r="80" fill="white"/>
    <circle cx="824" cy="800" r="80" fill="white"/>

    <!-- Sleeve area massive coverage -->
    <ellipse cx="180" cy="350" rx="120" ry="200" fill="white"/>
    <ellipse cx="844" cy="350" rx="120" ry="200" fill="white"/>

    <!-- Hood area massive coverage -->
    <ellipse cx="512" cy="180" rx="250" ry="100" fill="white"/>

    <!-- Final comprehensive coverage rectangle -->
    <rect x="100" y="100" width="824" height="824" fill="white" rx="80"/>

  </g>
</svg>