<svg width="1024" height="1024" viewBox="0 0 1024 1024" xmlns="http://www.w3.org/2000/svg">
  <defs>
    <linearGradient id="fabric" x1="0%" y1="0%" x2="100%" y2="100%">
      <stop offset="0%" style="stop-color:#fafafa"/>
      <stop offset="50%" style="stop-color:#f0f0f0"/>
      <stop offset="100%" style="stop-color:#e8e8e8"/>
    </linearGradient>
    <filter id="shadow">
      <feDropShadow dx="0" dy="8" stdDeviation="20" flood-opacity="0.2"/>
    </filter>
  </defs>
  <rect width="1024" height="1024" fill="#f5f5f5"/>
  <g filter="url(#shadow)">
    <!-- Athletic shorts with elastic waist -->
    <!-- Waistband -->
    <rect x="260" y="180" width="504" height="50" rx="5" fill="#e5e5e5" stroke="#ccc" stroke-width="2"/>
    <!-- Left leg -->
    <path d="M260,230 L220,650 L320,680 L400,650 L470,450 L512,380"
          fill="url(#fabric)" stroke="#ddd" stroke-width="2"/>
    <!-- Right leg -->
    <path d="M764,230 L804,650 L704,680 L624,650 L554,450 L512,380"
          fill="url(#fabric)" stroke="#ddd" stroke-width="2"/>
    <!-- Main body connecting legs -->
    <path d="M260,230 L764,230 L764,380 Q640,420 512,380 Q384,420 260,380 Z"
          fill="url(#fabric)" stroke="#ddd" stroke-width="2"/>
    <!-- Drawstring -->
    <line x1="460" y1="205" x2="440" y2="280" stroke="#888" stroke-width="3"/>
    <line x1="564" y1="205" x2="584" y2="280" stroke="#888" stroke-width="3"/>
    <!-- Side stripes (athletic style) -->
    <line x1="260" y1="230" x2="220" y2="650" stroke="#ddd" stroke-width="8"/>
    <line x1="764" y1="230" x2="804" y2="650" stroke="#ddd" stroke-width="8"/>
  </g>
</svg>


<svg width="1024" height="1024" viewBox="0 0 1024 1024" xmlns="http://www.w3.org/2000/svg">
  <defs>
    <linearGradient id="shorts-fabric" x1="0%" y1="0%" x2="100%" y2="100%">
      <stop offset="0%" style="stop-color:#ffffff;stop-opacity:1"/>
      <stop offset="50%" style="stop-color:#f5f5f5;stop-opacity:1"/>
      <stop offset="100%" style="stop-color:#eeeeee;stop-opacity:1"/>
    </linearGradient>
    <filter id="shorts-shadow">
      <feGaussianBlur in="SourceAlpha" stdDeviation="4"/>
      <feOffset dx="2" dy="4" result="offsetblur"/>
      <feComponentTransfer>
        <feFuncA type="linear" slope="0.3"/>
      </feComponentTransfer>
      <feMerge>
        <feMergeNode/>
        <feMergeNode in="SourceGraphic"/>
      </feMerge>
    </filter>
  </defs>
  
  <g filter="url(#shorts-shadow)">
    <!-- Shorts body -->
    <path d="M300,250 L724,250 L724,280 Q724,300 710,300 L680,300 L680,700 Q680,720 660,720 L580,720 
             Q560,720 560,740 L560,850 L464,850 L464,740 Q464,720 444,720 L364,720 Q344,720 344,700 
             L344,300 L314,300 Q300,300 300,280 Z"
          fill="url(#shorts-fabric)" stroke="#cccccc" stroke-width="2.5"/>
    
    <!-- Waistband -->
    <rect x="300" y="250" width="424" height="30" rx="5" 
          fill="#eeeeee" stroke="#cccccc" stroke-width="2"/>
    
    <!-- Drawstring -->
    <circle cx="480" cy="265" r="6" fill="#dddddd" stroke="#cccccc" stroke-width="1"/>
    <circle cx="544" cy="265" r="6" fill="#dddddd" stroke="#cccccc" stroke-width="1"/>
    <path d="M480,265 L460,290" stroke="#cccccc" stroke-width="2.5" stroke-linecap="round"/>
    <path d="M544,265 L564,290" stroke="#cccccc" stroke-width="2.5" stroke-linecap="round"/>
    
    <!-- Left pocket -->
    <path d="M360,320 L360,420 Q360,430 370,430 L430,430 Q440,430 440,420 L440,320" 
          fill="none" stroke="#cccccc" stroke-width="1.5"/>
    
    <!-- Right pocket -->
    <path d="M584,320 L584,420 Q584,430 594,430 L654,430 Q664,430 664,420 L664,320" 
          fill="none" stroke="#cccccc" stroke-width="1.5"/>
    
    <!-- Inseam -->
    <path d="M512,300 L512,720" stroke="#cccccc" stroke-width="2" opacity="0.6"/>
    
    <!-- Fabric texture -->
    <path d="M344,400 Q512,405 680,400" stroke="#e0e0e0" stroke-width="1" opacity="0.5" fill="none"/>
    <path d="M344,500 Q512,505 680,500" stroke="#e0e0e0" stroke-width="1" opacity="0.5" fill="none"/>
    <path d="M344,600 Q512,605 680,600" stroke="#e0e0e0" stroke-width="1" opacity="0.5" fill="none"/>
  </g>
</svg>
