<svg width="1024" height="1024" viewBox="0 0 1024 1024" xmlns="http://www.w3.org/2000/svg">
  <defs>
    <linearGradient id="fabric" x1="0%" y1="0%" x2="100%" y2="100%">
      <stop offset="0%" style="stop-color:#fafafa"/>
      <stop offset="50%" style="stop-color:#f0f0f0"/>
      <stop offset="100%" style="stop-color:#e8e8e8"/>
    </linearGradient>
    <filter id="shadow">
      <feDropShadow dx="0" dy="8" stdDeviation="20" flood-opacity="0.2"/>
    </filter>
  </defs>
  <rect width="1024" height="1024" fill="#f5f5f5"/>
  <g filter="url(#shadow)">
    <!-- Jogger sweatpants back -->
    <!-- Waistband -->
    <rect x="280" y="80" width="464" height="50" rx="5" fill="#e5e5e5" stroke="#ccc" stroke-width="2"/>
    <!-- Left leg - tapered -->
    <path d="M280,130 L240,400 L260,700 L320,900 L380,910 L360,700 L380,400 L480,250 L512,200"
          fill="url(#fabric)" stroke="#ddd" stroke-width="2"/>
    <!-- Right leg - tapered -->
    <path d="M744,130 L784,400 L764,700 L704,900 L644,910 L664,700 L644,400 L544,250 L512,200"
          fill="url(#fabric)" stroke="#ddd" stroke-width="2"/>
    <!-- Main body -->
    <path d="M280,130 L744,130 L744,200 Q640,260 512,200 Q384,260 280,200 Z"
          fill="url(#fabric)" stroke="#ddd" stroke-width="2"/>
    <!-- Elastic cuffs at ankles -->
    <ellipse cx="350" cy="905" rx="40" ry="15" fill="#e0e0e0" stroke="#ccc"/>
    <ellipse cx="674" cy="905" rx="40" ry="15" fill="#e0e0e0" stroke="#ccc"/>
  </g>
</svg>

