<svg width="1024" height="1024" viewBox="0 0 1024 1024" xmlns="http://www.w3.org/2000/svg">
  <defs>
    <linearGradient id="sockFabricBack" x1="0%" y1="0%" x2="100%" y2="0%">
      <stop offset="0%" style="stop-color:#f0f0f0"/>
      <stop offset="50%" style="stop-color:#fafafa"/>
      <stop offset="100%" style="stop-color:#f0f0f0"/>
    </linearGradient>
    <linearGradient id="sockCuffBack" x1="0%" y1="0%" x2="0%" y2="100%">
      <stop offset="0%" style="stop-color:#e5e5e5"/>
      <stop offset="100%" style="stop-color:#ededed"/>
    </linearGradient>
    <filter id="sockShadowBack">
      <feDropShadow dx="0" dy="8" stdDeviation="15" flood-opacity="0.15"/>
    </filter>
  </defs>
  <rect width="1024" height="1024" fill="#f8f8f8"/>
  
  <!-- Left Sock Back View -->
  <g filter="url(#sockShadowBack)" transform="translate(180, 100)">
    <!-- Main sock body -->
    <path d="M100,0 Q120,0 140,0 
             L155,10 Q165,25 165,50 
             L165,450 Q165,480 150,500 L140,550 
             Q120,620 90,680 L60,720 
             Q30,740 20,720 L15,680 
             Q10,640 30,600 L50,550 
             Q40,520 35,480 L35,50 
             Q35,25 45,10 Z"
          fill="url(#sockFabricBack)" stroke="#e0e0e0" stroke-width="2"/>
    <!-- Cuff ribbing -->
    <rect x="35" y="0" width="130" height="60" rx="5" fill="url(#sockCuffBack)" stroke="#ddd" stroke-width="1"/>
    <!-- Ribbing lines -->
    <line x1="50" y1="5" x2="50" y2="55" stroke="#e0e0e0" stroke-width="2"/>
    <line x1="70" y1="5" x2="70" y2="55" stroke="#e0e0e0" stroke-width="2"/>
    <line x1="90" y1="5" x2="90" y2="55" stroke="#e0e0e0" stroke-width="2"/>
    <line x1="110" y1="5" x2="110" y2="55" stroke="#e0e0e0" stroke-width="2"/>
    <line x1="130" y1="5" x2="130" y2="55" stroke="#e0e0e0" stroke-width="2"/>
    <line x1="150" y1="5" x2="150" y2="55" stroke="#e0e0e0" stroke-width="2"/>
    <!-- Heel back panel -->
    <path d="M50,450 Q100,430 150,450 L145,560 Q100,580 55,560 Z" 
          fill="#ececec" stroke="#e0e0e0" stroke-width="1"/>
  </g>
  
  <!-- Right Sock Back View -->
  <g filter="url(#sockShadowBack)" transform="translate(544, 100)">
    <!-- Main sock body - mirrored -->
    <path d="M100,0 Q80,0 60,0 
             L45,10 Q35,25 35,50 
             L35,450 Q35,480 50,500 L60,550 
             Q80,620 110,680 L140,720 
             Q170,740 180,720 L185,680 
             Q190,640 170,600 L150,550 
             Q160,520 165,480 L165,50 
             Q165,25 155,10 Z"
          fill="url(#sockFabricBack)" stroke="#e0e0e0" stroke-width="2"/>
    <!-- Cuff ribbing -->
    <rect x="35" y="0" width="130" height="60" rx="5" fill="url(#sockCuffBack)" stroke="#ddd" stroke-width="1"/>
    <!-- Ribbing lines -->
    <line x1="50" y1="5" x2="50" y2="55" stroke="#e0e0e0" stroke-width="2"/>
    <line x1="70" y1="5" x2="70" y2="55" stroke="#e0e0e0" stroke-width="2"/>
    <line x1="90" y1="5" x2="90" y2="55" stroke="#e0e0e0" stroke-width="2"/>
    <line x1="110" y1="5" x2="110" y2="55" stroke="#e0e0e0" stroke-width="2"/>
    <line x1="130" y1="5" x2="130" y2="55" stroke="#e0e0e0" stroke-width="2"/>
    <line x1="150" y1="5" x2="150" y2="55" stroke="#e0e0e0" stroke-width="2"/>
    <!-- Heel back panel -->
    <path d="M50,450 Q100,430 150,450 L145,560 Q100,580 55,560 Z" 
          fill="#ececec" stroke="#e0e0e0" stroke-width="1"/>
  </g>
</svg>

